<?xml version="1.0" encoding="utf-8"?>
<!-- Generator: Adobe Illustrator 24.3.0, SVG Export Plug-In . SVG Version: 6.00 Build 0)  -->
<svg version="1.1" id="Capa_1" xmlns="http://www.w3.org/2000/svg" xmlns:xlink="http://www.w3.org/1999/xlink" x="0px" y="0px"
	 viewBox="0 0 480 480" style="enable-background:new 0 0 480 480;" xml:space="preserve">
<style type="text/css">
	.st0{fill:#FFFFFF;}
</style>
<g>
	<g>
		<path class="st0" d="M278.9,17.6c-5.6-2.7-12.1-2-16.9,1.9L106.4,144H32c-17.6,0-32,14.4-32,32v128c0,17.6,14.4,32,32,32h74.4
			L262,460.5c2.9,2.3,6.5,3.5,10,3.5c2.4,0,4.7-0.5,6.9-1.6c5.5-2.7,9.1-8.3,9.1-14.4V32C288,25.9,284.5,20.3,278.9,17.6z M96,304
			H32V176h64V304z M256,414.7L128,312.3V167.7L256,65.3V414.7z"/>
	</g>
</g>
<g>
	<g>
		<path class="st0" d="M369,126.9c-6.3-6.2-16.4-6.1-22.6,0.1c-6.2,6.3-6.1,16.4,0.1,22.6c24.2,23.9,37.5,56,37.5,90.4
			s-13.3,66.5-37.5,90.4c-6.3,6.2-6.4,16.3-0.1,22.6c3.1,3.2,7.3,4.7,11.4,4.7c4.1,0,8.1-1.5,11.3-4.6c30.3-29.9,47-70.1,47-113.1
			C416,197,399.3,156.8,369,126.9z"/>
	</g>
</g>
<g>
	<g>
		<path class="st0" d="M414.1,81.8c-6.3-6.2-16.4-6.2-22.6,0.1s-6.2,16.4,0.1,22.6C428,140.6,448,188.7,448,240s-20,99.5-56.4,135.5
			c-6.3,6.2-6.3,16.4-0.1,22.6c3.1,3.2,7.2,4.7,11.4,4.7c4.1,0,8.1-1.5,11.3-4.6C456.6,356.1,480,299.9,480,240
			S456.6,123.9,414.1,81.8z"/>
	</g>
</g>
</svg>
